Coordinates											
version=1											
nRows=41											
nColumns=12											
inDegrees=yes											
											
"Units are S.I. units (second, meters, Newtons, ...)"											
"If the header above contains a line with 'inDegrees', this indicates whether rotational values are in degrees (yes) or radians (no)."											
											
endheader											
time	clav_prot	clav_elev	scapula_abduction	scapula_elevation	scapula_upward_rot	scapula_winging	plane_elv	shoulder_elv	axial_rot	elbow_flexion	pro_sup
3.46	-18.70421279	-4.68692797	-5.64296483	-4.11432045	13.02516924	5.11765081	-15.41918823	15.33421659	37.50047487	0	34.32
3.47	-18.79058399	-4.50537998	-5.93591845	-3.93458193	12.85377647	5.11784416	-14.80981446	15.99576947	34.19766831	0	34.32
3.48	-18.67055581	-4.44407731	-5.31470042	-4.0734936	13.58575973	4.89427012	-18.3737777	14.43615824	46.90227274	0	34.32
3.49	-18.66022155	-4.43309987	-5.2992781	-4.06451708	13.58572293	4.88937488	-18.33129398	14.36791597	46.90278323	0	34.32
3.5	-18.67527941	-4.33814413	-5.39153023	-3.97332777	13.51159324	4.88111936	-16.12671797	14.92851218	40.64794775	0	34.32
3.51	-18.66616239	-4.33534489	-5.38951399	-3.96461871	13.4885634	4.88456453	-16.121203	14.87326552	40.66018129	0	34.32
3.52	-18.69133002	-4.59584687	-5.5734511	-4.07487856	13.14300446	5.05698599	-15.83414306	15.09690296	38.02540443	0	34.32
3.53	-18.7029962	-4.59092548	-5.58021814	-4.07837611	13.16854069	5.05109369	-15.824357	15.09947422	38.05355434	0	34.32
3.54	-18.69171572	-4.3154326	-5.33302421	-3.99810885	13.66981115	4.83662583	-17.61002786	14.21717888	47.19968754	0	34.32
3.55	-18.78425323	-4.84448011	-5.73887308	-4.24297603	13.03874249	5.17806866	-15.9558492	15.40823497	37.90848515	0	34.32
3.56	-18.78040377	-4.8313106	-5.71938146	-4.23982752	13.06598204	5.16594361	-15.9626085	15.40243903	37.92839027	0	34.32
3.57	-18.64523317	-4.67647659	-5.42978442	-4.15423373	13.21930993	5.05596616	-16.71163385	15.26045002	38.64805758	0	34.32
3.58	-18.72926706	-4.41549094	-5.38588247	-4.07200533	13.6517326	4.87815908	-17.03800276	14.80378233	39.67199964	0	34.32
3.59	-18.7234333	-4.38943327	-5.38771494	-4.04899609	13.64144324	4.87190073	-17.01524051	14.78803801	39.68750166	0	34.32
3.6	-18.74169082	-4.20721404	-5.42615128	-3.92697921	13.704271	4.80259225	-17.38103493	14.3719126	44.51934277	0	34.32
3.61	-18.94516646	-4.58800604	-5.89399956	-4.13899485	13.3590742	5.04021809	-16.22961589	14.92486677	38.93084256	0	34.32
3.62	-18.95133665	-4.57987426	-5.89091292	-4.14027401	13.38642598	5.03205076	-16.22191356	14.94863373	38.95746267	0	34.32
3.63	-18.79522085	-4.86474803	-5.3977827	-4.41879436	13.64977566	5.03325308	-17.79474499	14.36786987	44.6564258	0	34.32
3.64	-18.81836104	-4.16737117	-5.51868299	-3.92341804	13.79185256	4.78030867	-17.51193746	14.1393416	47.1619461	0	34.32
3.65	-18.81712947	-4.30942675	-5.6124212	-3.97417509	13.57034108	4.88007068	-17.10347789	14.49029648	44.75500644	0	34.32
3.66	-18.68623713	-4.31180507	-5.38773353	-3.96671829	13.56138091	4.86212552	-17.3588662	14.56874368	44.24094601	0	34.32
3.67	-18.68779175	-4.21126255	-5.370582	-3.90944285	13.63620284	4.81247723	-16.48093648	14.97539518	39.13135851	0	34.32
3.68	-18.74637551	-4.20939318	-5.54240993	-3.88042527	13.51884928	4.8511559	-16.78035533	15.02271165	39.32117066	0	34.32
3.69	-18.66584583	-4.0467777	-5.31214002	-3.80897651	13.737425	4.73315175	-17.52923612	14.5759878	43.77784358	0	34.32
3.7	-18.68059015	-4.18526034	-5.42195878	-3.86346171	13.5376934	4.82853671	-16.65130641	14.97595482	41.34735119	0	34.32
3.71	-18.67171571	-4.20861979	-5.37707728	-3.89136278	13.5780242	4.82386483	-16.68415495	14.90198928	41.37283394	0	34.32
3.72	-18.59561659	-4.32408904	-5.28989204	-3.94273837	13.45203747	4.87879962	-16.73746178	15.04863385	40.32070953	0	34.32
3.73	-18.75893119	-4.18035834	-5.43473837	-3.91978235	13.75193232	4.78494026	-16.91161268	14.87925759	39.40206819	0	34.32
3.74	-18.74580288	-4.29179936	-5.45383492	-3.97379742	13.63495678	4.84691798	-17.28911312	14.79746317	40.82318397	0	34.32
3.75	-18.71721705	-4.05502784	-5.3065646	-3.85957306	13.89691003	4.70334054	-18.01084044	14.14159387	46.89387931	0	34.32
3.76	-18.64429024	-4.17308625	-5.22860903	-3.91120609	13.76353347	4.76118023	-17.9012906	14.29758201	45.688562	0	34.32
3.77	-18.5696177	-4.20594215	-5.05581915	-3.94758186	13.82177939	4.74434323	-17.53239253	14.61283721	42.38642519	0	34.32
3.78	-18.51958713	-4.31958263	-4.99332915	-4.00884537	13.73329389	4.79338654	-18.13154787	14.39652179	46.95918847	0	34.32
3.79	-18.52763448	-4.30645707	-5.00329749	-4.00229162	13.74531103	4.78777583	-18.14253374	14.43034587	46.95814691	0	34.32
3.8	-18.52689991	-4.3205758	-4.99848349	-4.01314918	13.74569226	4.79189073	-18.36631039	14.71991935	44.44812852	0	34.32
3.81	-18.47445076	-4.32226748	-5.04055358	-3.95165794	13.51587882	4.84189319	-16.89320066	15.39992877	37.60940321	0	34.32
3.82	-18.66593987	-4.11330978	-5.18824279	-3.90779148	13.92141352	4.70650969	-18.45061589	14.25129096	47.38666538	0	34.32
3.83	-18.58983761	-4.27650902	-5.10608992	-3.98858798	13.76806841	4.78311294	-18.01885084	14.57189312	43.98403244	0	34.32
3.84	-18.76258741	-4.32153253	-5.47189981	-3.99936401	13.64234172	4.85696386	-16.57915913	15.17475744	37.83213411	0	34.32
3.85	-18.69565226	-4.33369779	-5.37706142	-3.99389313	13.59916938	4.86078559	-17.25405961	15.11775364	38.41540281	0	34.32
3.86	-18.6871214	-4.33652403	-5.353554	-3.9990259	13.61245803	4.8569375	-17.23386207	15.10756178	38.43890586	0	34.32
